<svg width="157" height="50" viewBox="0 0 157 50" fill="none" xmlns="http://www.w3.org/2000/svg">
<rect width="67" height="50" rx="10" fill="#0526AD"/>
<path d="M20.52 29.66L11.3 26.08V23.92L20.52 20.34V22.42L12.08 25.58V24.42L20.52 27.58V29.66ZM33.5169 18H36.1169V32H33.5169V18ZM26.2769 32H23.6769V18H26.2769V32ZM33.7169 26H26.0569V23.78H33.7169V26ZM39.8683 32V18H42.4683V32H39.8683ZM45.675 29.66V27.58L54.115 24.42V25.58L45.675 22.42V20.34L54.895 23.92V26.08L45.675 29.66Z" fill="#F2F1F1"/>
<path d="M82.18 32L77.54 18H80.24L84.38 30.66H83.04L87.34 18H89.74L93.92 30.66H92.62L96.86 18H99.34L94.7 32H91.94L88.12 20.58H88.84L84.96 32H82.18ZM103.858 23.82H110.818V25.96H103.858V23.82ZM104.058 29.82H111.958V32H101.458V18H111.678V20.18H104.058V29.82ZM114.857 32V18H121.417C123.097 18 124.377 18.3333 125.257 19C126.137 19.6533 126.577 20.5333 126.577 21.64C126.577 22.3867 126.403 23.0267 126.057 23.56C125.71 24.08 125.243 24.4867 124.657 24.78C124.083 25.06 123.457 25.2 122.777 25.2L123.137 24.48C123.923 24.48 124.63 24.6267 125.257 24.92C125.883 25.2 126.377 25.6133 126.737 26.16C127.11 26.7067 127.297 27.3867 127.297 28.2C127.297 29.4 126.837 30.3333 125.917 31C124.997 31.6667 123.63 32 121.817 32H114.857ZM117.457 29.96H121.657C122.63 29.96 123.377 29.8 123.897 29.48C124.417 29.16 124.677 28.6467 124.677 27.94C124.677 27.2467 124.417 26.74 123.897 26.42C123.377 26.0867 122.63 25.92 121.657 25.92H117.257V23.9H121.137C122.043 23.9 122.737 23.74 123.217 23.42C123.71 23.1 123.957 22.62 123.957 21.98C123.957 21.3267 123.71 20.84 123.217 20.52C122.737 20.2 122.043 20.04 121.137 20.04H117.457V29.96ZM132.471 23.82H139.431V25.96H132.471V23.82ZM132.671 29.82H140.571V32H130.071V18H140.291V20.18H132.671V29.82ZM143.47 32V18H149.23C150.47 18 151.53 18.2 152.41 18.6C153.303 19 153.99 19.5733 154.47 20.32C154.95 21.0667 155.19 21.9533 155.19 22.98C155.19 24.0067 154.95 24.8933 154.47 25.64C153.99 26.3733 153.303 26.94 152.41 27.34C151.53 27.7267 150.47 27.92 149.23 27.92H144.91L146.07 26.74V32H143.47ZM152.63 32L149.09 26.92H151.87L155.43 32H152.63ZM146.07 27.02L144.91 25.78H149.11C150.257 25.78 151.117 25.5333 151.69 25.04C152.277 24.5467 152.57 23.86 152.57 22.98C152.57 22.0867 152.277 21.4 151.69 20.92C151.117 20.44 150.257 20.2 149.11 20.2H144.91L146.07 18.92V27.02Z" fill="#F2F1F1"/>
</svg>
